<?xml version="1.0" standalone="no"?><!DOCTYPE svg PUBLIC "-//W3C//DTD SVG 1.1//EN" "http://www.w3.org/Graphics/SVG/1.1/DTD/svg11.dtd"><svg t="1763538152421" class="icon" viewBox="0 0 1340 1024" version="1.1" xmlns="http://www.w3.org/2000/svg" p-id="9687" xmlns:xlink="http://www.w3.org/1999/xlink" width="335" height="256"><path d="M923.48571 777.385201m-43.518151-43.518151l0.021003 0.021003q-43.518151-43.518151 0-87.036302l355.811292-355.811292q43.518151-43.518151 87.036302 0l-0.021003-0.021003q43.518151 43.518151 0 87.036302l-355.811292 355.811292q-43.518151 43.518151-87.036302 0Z" p-id="9688" fill="#ffffff"></path><path d="M836.480144 334.536613m43.518151-43.518151l-0.021003 0.021003q43.518151-43.518151 87.036302 0l355.811292 355.811292q43.518151 43.518151 0 87.036302l0.021003-0.021003q-43.518151 43.518151-87.036302 0l-355.811292-355.811291q-43.518151-43.518151 0-87.036303Z" p-id="9689" fill="#ffffff"></path><path d="M0 261.710341m41.583756 0l41.583757 0q41.583756 0 41.583756 41.583756l0 415.837564q0 41.583756-41.583756 41.583756l-41.583757 0q-41.583756 0-41.583756-41.583756l0-415.837564q0-41.583756 41.583756-41.583756Z" p-id="9690" fill="#ffffff"></path><path d="M44.554025 388.154663m0-41.583757l0-43.276809q0-41.583756 41.583756-41.583756l230.581929 0q41.583756 0 41.583756 41.583756l0 43.276809q0 41.583756-41.583756 41.583757l-230.581929 0q-41.583756 0-41.583756-41.583757Z" p-id="9691" fill="#ffffff"></path><path d="M29.702683 760.715417m0-41.583756l0-41.583757q0-41.583756 41.583756-41.583756l243.562002 0q41.583756 0 41.583756 41.583756l0 41.583757q0 41.583756-41.583756 41.583756l-243.562002 0q-41.583756 0-41.583756-41.583756Z" p-id="9692" fill="#ffffff"></path><path d="M318.437932 413.11975m-39.262692-47.393036l0.018949 0.022873q-39.262692-47.393037 8.130344-86.655729l319.902998-265.023173q47.393037-39.262692 86.655729 8.130344l-0.018949-0.022873q39.262692 47.393037-8.130344 86.655729l-319.902998 265.023173q-47.393037 39.262692-86.655729-8.130344Z" p-id="9693" fill="#ffffff"></path><path d="M712.181233 1024m-61.54396 0l0.029703 0q-61.543959 0-61.543959-61.543959l0-899.991298q0-61.543959 61.543959-61.54396l-0.029703 0q61.543959 0 61.54396 61.54396l0 899.991298q0 61.543959-61.54396 61.543959Z" p-id="9694" fill="#ffffff"></path><path d="M242.879319 705.456591m39.262692-47.393037l-0.018949 0.022873q39.262692-47.393037 86.655729-8.130344l319.902998 265.023173q47.393037 39.262692 8.130344 86.655729l0.018949-0.022873q-39.262692 47.393037-86.655729 8.130344l-319.902998-265.023173q-47.393037-39.262692-8.130344-86.655729Z" p-id="9695" fill="#ffffff"></path></svg>