<?xml version="1.0" standalone="no"?><!DOCTYPE svg PUBLIC "-//W3C//DTD SVG 1.1//EN" "http://www.w3.org/Graphics/SVG/1.1/DTD/svg11.dtd"><svg t="1763538078810" class="icon" viewBox="0 0 1024 1024" version="1.1" xmlns="http://www.w3.org/2000/svg" p-id="7779" xmlns:xlink="http://www.w3.org/1999/xlink" width="256" height="256"><path d="M554.666667 170.666667a42.666667 42.666667 0 0 0-67.136-34.944L285.226667 277.333333H128a42.666667 42.666667 0 0 0-42.666667 42.666667v384a42.666667 42.666667 0 0 0 42.666667 42.666667h157.226667l202.304 141.632A42.666667 42.666667 0 0 0 554.666667 853.333333V170.666667z m198.698666 94.165333c133.290667 133.312 133.290667 349.44 0 482.730667l60.330667 60.330666c166.613333-166.613333 166.613333-436.778667 0-603.392l-60.330667 60.330667z m-120.682666 128a170.666667 170.666667 0 0 1 0 241.365333l60.330666 60.330667c99.989333-99.968 99.989333-262.058667 0-362.026667l-60.330666 60.330667z" p-id="7780" fill="#ffffff"></path></svg>