<?xml version="1.0" standalone="no"?><!DOCTYPE svg PUBLIC "-//W3C//DTD SVG 1.1//EN" "http://www.w3.org/Graphics/SVG/1.1/DTD/svg11.dtd"><svg t="1760940915052" class="icon" viewBox="0 0 1024 1024" version="1.1" xmlns="http://www.w3.org/2000/svg" p-id="10145" xmlns:xlink="http://www.w3.org/1999/xlink" width="200" height="200"><path d="M472.8 609.2c-146.1 0-264.9-118.8-264.9-264.9S326.8 79.5 472.8 79.5s264.9 118.8 264.9 264.9-118.8 264.8-264.9 264.8z m0-437c-94.9 0-172.2 77.2-172.2 172.2s77.2 172.2 172.2 172.2S645 439.3 645 344.3s-77.2-172.1-172.2-172.1z" fill="#3D90F5" p-id="10146"></path><path d="M145 937c-25.6 0-46.4-20.8-46.4-46.4 0-206.3 167.8-374.1 374.1-374.1 83.3 0 162.2 26.8 228.1 77.5 20.3 15.6 24.1 44.7 8.4 65-15.7 20.3-44.8 24-65 8.4-49.5-38.1-108.8-58.3-171.5-58.3-155.2 0-281.4 126.3-281.4 281.4 0.1 25.8-20.7 46.5-46.3 46.5zM881.9 840.1H688.1c-25.6 0-46.4-20.8-46.4-46.4s20.8-46.4 46.4-46.4H882c25.6 0 46.4 20.8 46.4 46.4s-20.9 46.4-46.5 46.4z" fill="#3D90F5" p-id="10147"></path><path d="M785 937c-25.6 0-46.4-20.8-46.4-46.4V696.8c0-25.6 20.8-46.4 46.4-46.4s46.4 20.8 46.4 46.4v193.8c0 25.7-20.8 46.4-46.4 46.4z" fill="#3D90F5" p-id="10148"></path></svg>