<?xml version="1.0" standalone="no"?><!DOCTYPE svg PUBLIC "-//W3C//DTD SVG 1.1//EN" "http://www.w3.org/Graphics/SVG/1.1/DTD/svg11.dtd"><svg t="1701692969919" class="icon" viewBox="0 0 1024 1024" version="1.1" xmlns="http://www.w3.org/2000/svg" p-id="8171" xmlns:xlink="http://www.w3.org/1999/xlink" width="16" height="16"><path d="M512 993.882353C245.850353 993.882353 30.117647 778.149647 30.117647 512S245.850353 30.117647 512 30.117647s481.882353 215.732706 481.882353 481.882353-215.732706 481.882353-481.882353 481.882353z m0-60.235294c232.869647 0 421.647059-188.777412 421.647059-421.647059S744.869647 90.352941 512 90.352941 90.352941 279.130353 90.352941 512s188.777412 421.647059 421.647059 421.647059z" fill="#ffffff" p-id="8172"></path><path d="M213.853011 536.947546m21.296393-21.296393l0 0q21.296392-21.296392 42.592785 0l170.371139 170.37114q21.296392 21.296392 0 42.592785l0 0q-21.296392 21.296392-42.592785 0l-170.371139-170.37114q-21.296392-21.296392 0-42.592785Z" fill="#ffffff" p-id="8173"></path><path d="M384.224151 707.318686m21.296392-21.296393l330.094084-330.094083q21.296392-21.296392 42.592785 0l0 0q21.296392 21.296392 0 42.592785l-330.094084 330.094083q-21.296392 21.296392-42.592785 0l0 0q-21.296392-21.296392 0-42.592785Z" fill="#ffffff" p-id="8174"></path><path d="M0 0h1024v1024H0z" fill="#ffffff" fill-opacity="0" p-id="8175"></path></svg>