<svg xmlns="http://www.w3.org/2000/svg" xmlns:xlink="http://www.w3.org/1999/xlink" viewBox="0 0 252 39" class="design-iconfont">
  <defs>
    <linearGradient x1="50%" y1="-44.8021707%" x2="50%" y2="100%" id="1l2gxqidz__5nektv4wuc">
      <stop stop-color="#58B8FD" offset="0%"/>
      <stop stop-color="#68D1F3" offset="100%"/>
    </linearGradient>
    <linearGradient x1="50%" y1="0%" x2="50%" y2="100%" id="1l2gxqidz__61a654b72b">
      <stop stop-color="#58B8FD" offset="0%"/>
      <stop stop-color="#68D1F3" offset="100%"/>
    </linearGradient>
    <path d="M232.684992,0.957714179 C228.190819,4.96985915 225.321498,7.92506823 224.077029,9.82334142 C220.486118,15.3008043 220.486118,20.3676284 218.217979,24.0641701 C215.630448,28.2812464 211.814313,31.9463193 203.149603,34.4561365 C199.194965,35.6016355 191.728311,36.3354947 180.749639,36.6577142 L125.584992,36.6577142 L125.584992,0.957714179 L232.684992,0.957714179 Z M124.534992,0.957714179 L124.534992,36.6577142 L69.3703457,36.6577142 C58.3916739,36.3354947 50.9250194,35.6016355 46.9703821,34.4561365 C38.3056717,31.9463193 34.4895369,28.2812464 31.902006,24.0641701 C29.633867,20.3676284 29.633867,15.3008043 26.0429554,9.82334142 C24.7984867,7.92506823 21.9291657,4.96985915 17.4349923,0.957714179 L17.4349923,0.957714179 L124.534992,0.957714179 Z" id="1l2gxqidz__jgsdatytna"/>
  </defs>
  <g fill="none" fill-rule="evenodd">
    <path d="M221.55,14.7 C226.171384,5.76592416 229.833066,0.866147503 232.535048,0.000670037556 C233.285782,-0.000837546945 234.74079,0.000670037556 235.50792,0.000670037556 C242.82862,0.000670037556 249.521679,9.72703989 251.286525,14.7 C248.583936,14.6554644 238.67176,14.6554644 221.55,14.7 Z" fill="#006889" transform="translate(0 1)"/>
    <path d="M0,14.7 C4.62138364,5.76592416 8.28306628,0.866147503 10.9850479,0.000670037556 C11.735782,-0.000837546945 13.1907896,0.000670037556 13.95792,0.000670037556 C21.2786197,0.000670037556 27.9716789,9.72703989 29.7365254,14.7 C27.0339356,14.6554644 17.1217605,14.6554644 0,14.7 Z" fill="#006889" transform="matrix(-1 0 0 1 29.736526 1)"/>
    <g fill-rule="nonzero" transform="translate(0 1)">
      <use fill="#FFF" xlink:href="#1l2gxqidz__jgsdatytna"/>
      <use stroke="url(#1l2gxqidz__61a654b72b)" stroke-width="2.1" fill="url(#1l2gxqidz__5nektv4wuc)" xlink:href="#1l2gxqidz__jgsdatytna"/>
    </g>
  </g>
</svg>
