<?xml version="1.0" standalone="no"?><!DOCTYPE svg PUBLIC "-//W3C//DTD SVG 1.1//EN" "http://www.w3.org/Graphics/SVG/1.1/DTD/svg11.dtd"><svg t="1714476245994" class="icon" viewBox="0 0 1024 1024" version="1.1" xmlns="http://www.w3.org/2000/svg" p-id="22092" xmlns:xlink="http://www.w3.org/1999/xlink" width="16" height="16"><path d="M612.571429 686.372571h-201.801143l-100.827429-174.701714 100.827429-174.811428h201.801143l100.900571 174.811428-100.937143 174.701714z m-173.056-49.883428h144.274285l72.155429-124.818286-72.155429-124.928h-144.274285l-72.045715 124.928z" fill="#006889" p-id="22093"></path><path d="M612.571429 386.742857h-201.801143L309.76 211.785143l11.154286-18.541714 5.632-3.254858a371.894857 371.894857 0 0 1 370.468571 0l7.460572 4.315429 7.899428 19.748571-99.84 172.690286z m-173.056-49.883428h144.274285l66.523429-115.126858a322.450286 322.450286 0 0 0-277.174857 0.109715z m72.228571 546.925714a371.2 371.2 0 0 1-184.32-48.969143l-5.924571-3.401143-10.971429-19.2 6.4-12.8 93.988571-162.742857h201.728l100.827429 174.701714-11.483429 20.114286-5.888 3.401143a372.662857 372.662857 0 0 1-184.356571 48.896z m-138.971429-81.371429a321.462857 321.462857 0 0 0 138.971429 31.488 321.938286 321.938286 0 0 0 138.971429-31.488l-66.816-115.858285h-144.201143z" fill="#006889" p-id="22094"></path><path d="M693.76 836.242286h-23.515429l-100.827428-174.811429 100.937143-174.811428h201.801143l11.117714 19.565714v6.656a371.931429 371.931429 0 0 1-50.797714 186.989714 374.125714 374.125714 0 0 1-132.900572 133.010286z m-66.816-174.811429l66.816 115.931429a323.986286 323.986286 0 0 0 138.642286-240.859429h-133.302857z" fill="#006889" p-id="22095"></path><path d="M871.570286 536.612571h-201.325715l-100.827428-174.811428 100.937143-174.811429h21.577143l5.851428 3.437715a374.564571 374.564571 0 0 1 133.851429 132.754285 370.834286 370.834286 0 0 1 51.638857 187.318857v7.131429z m-172.580572-49.92h133.339429a323.547429 323.547429 0 0 0-138.898286-240.054857l-66.486857 115.126857z m-345.6 349.513143h-23.771428l-5.814857-3.401143a374.162286 374.162286 0 0 1-132.754286-132.754285 371.492571 371.492571 0 0 1-50.870857-186.660572v-6.948571l11.776-19.748572h201.508571l100.388572 173.897143-6.4 12.8-93.988572 162.852572zM190.902857 536.576a324.022857 324.022857 0 0 0 138.825143 240.859429l66.998857-116.041143-72.155428-124.818286H190.902857z" fill="#006889" p-id="22096"></path><path d="M353.389714 536.612571h-201.508571l-11.922286-19.785142 0.073143-6.985143c0.438857-65.938286 18.395429-130.56 51.785143-186.989715a373.174857 373.174857 0 0 1 133.924571-132.388571l5.814857-3.328h21.833143l101.010286 174.701714-101.010286 174.738286zM190.902857 486.692571h133.778286l72.155428-124.928-66.669714-115.2a323.803429 323.803429 0 0 0-139.264 240.164572z" fill="#006889" p-id="22097"></path></svg>