<svg xmlns="http://www.w3.org/2000/svg" viewBox="0 0 17 15" class="design-iconfont">
  <path d="M20.0967246,11.5590802 L21.1951946,11.5590802 L21.1951946,13.3975931 L24,10.1640758 L21.1960724,7 L21.1960724,9.09909836 L20.0977169,9.09909836 C16.952713,9.09909836 14.9012942,11.5047734 13.3344502,13.6272462 C11.9281452,15.5350869 10.7107927,17.3351097 8.74913681,17.3351097 L7,17.3351097 L7,19.7960575 L8.74825902,19.7960575 C11.8932628,19.7960575 13.6679126,17.238619 15.2356153,15.1160515 C16.6419394,13.2072068 18.1303935,11.5590802 20.0967437,11.5590802 L20.0967246,11.5590802 Z M11.5739785,12.9663021 L11.9810985,12.418745 C12.3153242,11.967868 12.6649111,11.4897334 13.0454494,11.0152925 C11.9187567,9.9305396 10.5624663,9.12993598 8.74825902,9.12993598 L7,9.12993598 L7,11.5900125 C7,11.5900125 7.47131263,11.5665433 8.74825902,11.5900125 C9.98448388,11.6171754 10.7598341,12.1384599 11.5739595,12.9663021 L11.5739785,12.9663021 Z M21.1960533,17.4296683 L20.0976978,17.4296683 C18.8999809,17.4296683 17.7044013,16.74069 16.8477606,15.8266236 C16.7629787,15.9442498 16.6767394,16.0608342 16.5890625,16.1763503 C16.2131039,16.6853225 15.8098958,17.2337698 15.3650503,17.7738638 C16.5211488,18.936298 18.1965326,19.8897448 20.0976978,19.8897448 L21.1960724,19.8897448 L21.1960724,22 L24,18.7609516 L21.1960724,15.602691 L21.1960724,17.4296683 L21.1960533,17.4296683 Z" transform="translate(-7 -7)" fill="#77819B" fill-rule="nonzero"/>
</svg>
