<?xml version="1.0" standalone="no"?><!DOCTYPE svg PUBLIC "-//W3C//DTD SVG 1.1//EN" "http://www.w3.org/Graphics/SVG/1.1/DTD/svg11.dtd"><svg t="1757034479249" class="icon" viewBox="0 0 1024 1024" version="1.1" xmlns="http://www.w3.org/2000/svg" p-id="7106" xmlns:xlink="http://www.w3.org/1999/xlink" width="200" height="200"><path d="M768 224a32 32 0 1 0 0 64h85.376l9.28 0.128-278.016 312.768c-6.4 7.168-11.84 13.248-16.512 18.24a164.48 164.48 0 0 1-11.392 11.264 37.824 37.824 0 0 1-5.12 3.968c-0.768 0.448-0.96 0.256-0.96 0.256s-0.256 0.192-1.152-0.128a32.128 32.128 0 0 1-5.76-3.008 160.896 160.896 0 0 1-12.992-9.088 1025.92 1025.92 0 0 1-19.392-15.296l-90.368-72.32c-7.04-5.76-13.44-10.816-19.52-15.36a264.256 264.256 0 0 0-17.856-12.416 99.904 99.904 0 0 0-20.096-9.28 70.464 70.464 0 0 0-17.152-3.072 59.392 59.392 0 0 0-28.608 5.568 98.176 98.176 0 0 0-19.008 11.392 169.408 169.408 0 0 0-16.384 14.272c-5.504 5.248-11.2 11.072-17.6 17.472L62.72 745.344a32 32 0 0 0 45.312 45.312l201.984-202.048c6.4-6.4 11.968-11.84 16.64-16.256 4.608-4.352 8.32-7.744 11.2-9.984a51.712 51.712 0 0 1 4.992-3.648c0.768-0.384 1.024-0.192 1.024-0.192s0.192-0.192 1.024 0.128a39.872 39.872 0 0 1 5.504 2.944c3.072 1.92 7.104 4.864 12.224 8.768 5.12 3.904 11.264 8.704 18.368 14.4l90.368 72.256c7.488 5.952 14.144 11.392 20.48 16.256a278.4 278.4 0 0 0 18.816 12.992 83.328 83.328 0 0 0 33.024 12.032 62.72 62.72 0 0 0 12.288 0.192 58.496 58.496 0 0 0 12.16-2.368 71.168 71.168 0 0 0 21.504-10.368c3.2-2.176 6.208-4.608 8.96-7.04 2.816-2.368 5.568-4.928 8.32-7.616 2.624-2.624 5.248-5.44 7.936-8.32 5.504-5.888 11.136-12.224 17.536-19.392l274.112-308.48 0.128 6.464v85.248a32 32 0 0 0 19.776 29.632 32 32 0 0 0 34.88-7.04 32.128 32.128 0 0 0 9.344-22.592V341.376c0-10.048 0.128-19.008-0.128-27.392a274.752 274.752 0 0 0-1.728-23.68 99.392 99.392 0 0 0-6.144-23.296 75.904 75.904 0 0 0-2.624-5.76c-0.96-1.856-2.112-3.584-3.2-5.376a62.016 62.016 0 0 0-18.048-17.984c-1.792-1.152-3.52-2.304-5.376-3.264a84.928 84.928 0 0 0-28.992-8.768 271.04 271.04 0 0 0-23.68-1.728c-8.32-0.192-17.28-0.128-27.328-0.128H768zM213.376 309.376a32 32 0 1 0 0 64h256a32 32 0 0 0 31.616-36.992 32 32 0 0 0-3.136-9.536 32.064 32.064 0 0 0-28.48-17.472h-256z" fill="#ffffff" p-id="7107"></path></svg>