<svg xmlns="http://www.w3.org/2000/svg" viewBox="0 0 18 18" class="design-iconfont">
  <defs>
    <linearGradient x1="50%" y1="0%" x2="50%" y2="100%" id="gb7rlmn15__ysv995suka">
      <stop stop-color="#5EAFEF" offset="0%"/>
      <stop stop-color="#3487F6" offset="100%"/>
    </linearGradient>
  </defs>
  <path d="M238.786473,607 C239.525552,607 240.127002,607.602994 240.126745,608.344131 L240.126745,608.344131 L240.126745,617.863153 C240.126745,618.604033 239.525552,619.207027 238.786473,619.207027 L238.786473,619.207027 L236.207284,619.207027 L236.207284,622.12064 C236.207284,622.86152 235.60429,623.464257 234.86341,623.464257 L234.86341,623.464257 L225.343874,623.464257 C224.602737,623.464257 224,622.86152 224,622.12064 L224,622.12064 L224,612.600847 C224,611.859967 224.602994,611.256973 225.343874,611.256973 L225.343874,611.256973 L227.919975,611.256973 L227.919975,608.344131 C227.919975,607.602994 228.522969,607 229.263849,607 L229.263849,607 Z M234.86341,611.771216 L225.343874,611.771216 C224.886483,611.771216 224.5145,612.143456 224.5145,612.60059 L224.5145,612.60059 L224.5145,622.120383 C224.5145,622.577774 224.886741,622.9495 225.343874,622.9495 L225.343874,622.9495 L234.86341,622.9495 C235.320801,622.9495 235.692784,622.577774 235.692784,622.120383 L235.692784,622.120383 L235.692784,612.60059 C235.692784,612.143199 235.320543,611.771216 234.86341,611.771216 L234.86341,611.771216 Z M227.012912,619.028238 C227.797524,619.028238 228.436019,619.666476 228.436019,620.451345 C228.436019,621.236215 227.797524,621.874452 227.012912,621.874452 C226.228299,621.874452 225.589805,621.236215 225.589805,620.451345 C225.589805,619.666476 226.228299,619.028238 227.012912,619.028238 Z M233.194372,619.028238 C233.979242,619.028238 234.617479,619.666476 234.617479,620.451345 C234.617479,621.236215 233.979242,621.874452 233.194372,621.874452 C232.409502,621.874452 231.771265,621.236215 231.771265,620.451345 C231.771265,619.666476 232.40976,619.028238 233.194372,619.028238 Z M227.012912,619.542738 C226.511789,619.542738 226.104305,619.95048 226.104305,620.451345 C226.104305,620.952211 226.511789,621.359952 227.012912,621.359952 C227.513778,621.359952 227.921519,620.952211 227.921519,620.451345 C227.921519,619.95048 227.514035,619.542738 227.012912,619.542738 Z M233.194372,619.542738 C232.693249,619.542738 232.285765,619.95048 232.285765,620.451345 C232.285765,620.952211 232.693506,621.359952 233.194372,621.359952 C233.695495,621.359952 234.102979,620.952211 234.102979,620.451345 C234.102979,619.95048 233.695495,619.542738 233.194372,619.542738 Z M230.103771,615.93738 C230.888383,615.93738 231.526878,616.575617 231.526878,617.360486 C231.526878,618.145356 230.888383,618.783593 230.103771,618.783593 C229.319158,618.783593 228.680664,618.145356 228.680664,617.360486 C228.680664,616.575617 229.319158,615.93738 230.103771,615.93738 Z M238.78673,607.5145 L229.263849,607.5145 C228.806459,607.5145 228.434475,607.886483 228.434475,608.344131 L228.434475,608.344131 L228.434475,611.256716 L234.86341,611.256716 C235.604547,611.256716 236.207284,611.85971 236.207284,612.60059 L236.207284,612.60059 L236.207284,618.692784 L238.78673,618.692784 C239.242062,618.692784 239.612502,618.320543 239.612502,617.86341 L239.612502,617.86341 L239.612502,608.344131 C239.612502,607.886483 239.242062,607.5145 238.78673,607.5145 L238.78673,607.5145 Z M230.103771,616.452137 C229.602648,616.452137 229.195164,616.859878 229.195164,617.360744 C229.195164,617.861609 229.602648,618.269351 230.103771,618.269351 C230.604636,618.269351 231.012378,617.861609 231.012378,617.360744 C231.012378,616.859878 230.604636,616.452137 230.103771,616.452137 Z M233.194372,612.846521 C233.979242,612.846521 234.617479,613.484758 234.617479,614.269628 C234.617479,615.054498 233.979242,615.692735 233.194372,615.692735 C232.409502,615.692735 231.771265,615.054498 231.771265,614.269628 C231.771265,613.484758 232.40976,612.846521 233.194372,612.846521 Z M227.012912,612.846521 C227.797524,612.846521 228.436019,613.484758 228.436019,614.269628 C228.436019,615.054498 227.797524,615.692735 227.012912,615.692735 C226.228299,615.692735 225.589805,615.054498 225.589805,614.269628 C225.589805,613.484758 226.228299,612.846521 227.012912,612.846521 Z M233.194372,613.361021 C232.693249,613.361021 232.285765,613.768762 232.285765,614.269628 C232.285765,614.770494 232.693506,615.178235 233.194372,615.178235 C233.695495,615.178235 234.102979,614.770494 234.102979,614.269628 C234.102979,613.768762 233.695495,613.361021 233.194372,613.361021 Z M227.012912,613.361021 C226.511789,613.361021 226.104305,613.768762 226.104305,614.269628 C226.104305,614.770494 226.511789,615.178235 227.012912,615.178235 C227.513778,615.178235 227.921519,614.770494 227.921519,614.269628 C227.921519,613.768762 227.514035,613.361021 227.012912,613.361021 Z M237.115891,608.219365 C237.900504,608.219365 238.538998,608.857602 238.538998,609.642472 C238.538998,610.427342 237.900504,611.065579 237.115891,611.065579 C236.331279,611.065579 235.692784,610.427342 235.692784,609.642472 C235.692784,608.857602 236.331279,608.219365 237.115891,608.219365 Z M237.115891,608.733865 C236.614768,608.733865 236.207284,609.141863 236.207284,609.642729 C236.207284,610.143595 236.614768,610.551336 237.115891,610.551336 C237.617014,610.551336 238.024498,610.143338 238.024498,609.642472 C238.024498,609.141606 237.617014,608.733865 237.115891,608.733865 Z" transform="translate(-223 -606)" fill="url(#gb7rlmn15__ysv995suka)" fill-rule="nonzero" stroke="url(#gb7rlmn15__ysv995suka)" stroke-width=".7"/>
</svg>
