<?xml version="1.0" standalone="no"?><!DOCTYPE svg PUBLIC "-//W3C//DTD SVG 1.1//EN" "http://www.w3.org/Graphics/SVG/1.1/DTD/svg11.dtd"><svg t="1764743480523" class="icon" viewBox="0 0 1024 1024" version="1.1" xmlns="http://www.w3.org/2000/svg" p-id="27519" xmlns:xlink="http://www.w3.org/1999/xlink" width="256" height="256"><path d="M848.4 959.1H174.2c-60.2 0-110.1-44.7-110.1-98V162.9c0-53.3 49.9-98 110.1-98h675.9c60.2 0 110.1 44.7 110.1 98v698.2c-1.8 53.3-51.6 98-111.8 98zM174.2 133.7c-22.4 0-41.3 13.8-41.3 29.2v698.2c0 15.5 18.9 29.2 41.3 29.2h675.9c22.4 0 41.3-13.8 41.3-29.2V162.9c0-15.5-18.9-29.2-41.3-29.2H174.2z m577.9 412.7c-18.9 0-34.4-15.5-34.4-34.4V408.8H614.5c-18.9 0-34.4-15.5-34.4-34.4s15.5-34.4 34.4-34.4h137.6c18.9 0 34.4 15.5 34.4 34.4V512c0 18.9-15.5 34.4-34.4 34.4zM511.3 649.6c-8.6 0-17.2-3.4-24.1-10.3L390.9 543l-96.3 96.3c-13.8 13.8-34.4 13.8-48.2 0-13.8-13.8-13.8-34.4 0-48.2l120.4-120.4c13.8-13.8 34.4-13.8 48.2 0l96.3 96.3L728 350.3c13.8-13.8 34.4-13.8 48.2 0 13.8 13.8 13.8 34.4 0 48.2L535.4 639.3c-6.9 6.8-15.5 10.3-24.1 10.3z" p-id="27520" fill="#3b82f6"></path></svg>