<?xml version="1.0" standalone="no"?><!DOCTYPE svg PUBLIC "-//W3C//DTD SVG 1.1//EN" "http://www.w3.org/Graphics/SVG/1.1/DTD/svg11.dtd"><svg t="1764742709787" class="icon" viewBox="0 0 1024 1024" version="1.1" xmlns="http://www.w3.org/2000/svg" p-id="5085" xmlns:xlink="http://www.w3.org/1999/xlink" width="256" height="256"><path d="M204.8 230.4A76.8 76.8 0 0 0 128 307.2v409.6A76.8 76.8 0 0 0 204.8 793.6h614.4a76.8 76.8 0 0 0 76.8-76.8V307.2a76.8 76.8 0 0 0-76.8-76.8H204.8zM204.8 179.2h614.4a128 128 0 0 1 128 128v409.6a128 128 0 0 1-128 128H204.8a128 128 0 0 1-128-128V307.2a128 128 0 0 1 128-128z" fill="#059669" p-id="5086"></path><path d="M552.533333 527.872c8.106667 0.512 16.526222 0.768 25.230223 0.768 8.704 0 17.237333-0.64 25.6-1.92a115.84 115.84 0 0 0 23.907555-6.272 69.930667 69.930667 0 0 0 20.437333-12.032c6.030222-5.12 10.993778-11.548444 14.862223-19.313778 3.882667-7.765333 6.343111-17.095111 7.367111-28.017778H541.44c0.512-1.194667 1.934222-3.697778 4.266667-7.537777l7.367111-12.16c3.100444-4.949333 6.542222-10.325333 10.353778-16.113778h100.067555c0-4.437333-2.161778-8.917333-6.471111-13.44a70.940444 70.940444 0 0 0-15.644444-12.145778 113.137778 113.137778 0 0 0-18.744889-8.832c-6.371556-2.304-11.633778-3.456-15.772445-3.456h-65.422222c0.696889-2.048 2.204444-5.12 4.522667-9.216 2.332444-4.096 4.792889-8.135111 7.367111-12.145778l6.855111-10.624c1.991111-3.072 3.057778-4.608 3.242667-4.608H778.808889l-1.422222 2.816c-0.952889 1.877333-2.204444 4.138667-3.754667 6.784-1.550222 2.645333-3.271111 5.546667-5.162667 8.704l-5.304889 8.817778c-1.635556 2.730667-3.015111 4.992-4.124444 6.784l-1.706667 2.688h-56.604444c3.612444 6.144 6.755556 12.330667 9.429333 18.545778 2.673778 6.229333 4.352 12.657778 5.034667 19.328h63.616l-21.475556 35.811555h-39.822222c-2.062222 15.872-6.584889 29.44-13.568 40.675556a99.271111 99.271111 0 0 1-25.6 28.017778c-10.083556 7.424-21.333333 13.141333-33.735111 17.152-12.416 4.010667-25.173333 6.784-38.272 8.32 0 0.170667 0.284444 0.711111 0.896 1.664 0.611556 0.938667 1.336889 1.991111 2.204444 3.185778 0.853333 1.365333 1.891556 2.816 3.100445 4.352l114.816 156.842666v6.4h-49.137778L552.547556 561.635556v-33.763556z" fill="#059669" p-id="5087"></path><path d="M110.691556 435.2L80.924444 588.8H281.6a76.8 76.8 0 0 0 0-153.6H110.691556z m-13.084445-51.2h207.985778c57.457778 0 104.007111 57.315556 104.007111 128s-46.563556 128-104.007111 128H97.607111C86.115556 640 76.8 628.536889 76.8 614.4V409.6c0-14.136889 9.315556-25.6 20.792889-25.6z" fill="#059669" p-id="5088"></path><path d="M262.4 518.4m-32 0a32 32 0 1 0 64 0 32 32 0 1 0-64 0Z" fill="#059669" p-id="5089"></path></svg>