<svg xmlns="http://www.w3.org/2000/svg" viewBox="0 0 19 20" class="design-iconfont">
  <defs>
    <linearGradient x1="50%" y1="0%" x2="50%" y2="100%" id="dnnoeeib1__52itc8sjwa">
      <stop stop-color="#5EAFEF" offset="0%"/>
      <stop stop-color="#3487F6" offset="100%"/>
    </linearGradient>
  </defs>
  <path d="M316.396857,530.056353 C316.009424,529.905261 315.576957,530.068296 315.38053,530.422275 L315.333023,530.523456 L314.175806,533.480788 C314.09615,533.683743 314.100451,533.910039 314.187759,534.109821 C314.260516,534.276306 314.385943,534.412995 314.543266,534.499897 L314.641321,534.545904 L317.597075,535.702507 C317.692291,535.739136 317.793505,535.757709 317.892294,535.757313 C318.284042,535.750572 318.616499,535.468096 318.686411,535.082583 C318.749332,534.73562 318.583826,534.392131 318.284751,534.222155 L318.180242,534.172156 L316.972718,533.698166 L317.611355,533.476323 C318.391728,533.205245 319.213023,533.068178 320.039494,533.071595 C323.212156,533.072558 326.030454,535.097781 327.043218,538.104456 C328.055982,541.111132 327.037367,544.428775 324.511867,546.349098 C321.986367,548.269421 318.517167,548.364194 315.890592,546.584617 C313.264017,544.805041 312.06579,541.547958 312.91274,538.491022 C313.032984,538.053151 312.775497,537.600708 312.337625,537.480464 C311.899754,537.360219 311.447312,537.617707 311.326948,538.056011 C310.574665,540.776324 311.136752,543.691901 312.846415,545.937582 C314.556074,548.183257 317.216894,549.501048 320.040033,549.499956 C323.798858,549.509183 327.170814,547.190424 328.507389,543.677259 C329.843965,540.164089 328.865951,536.1904 326.051489,533.698894 C323.641114,531.565107 320.29093,530.8849 317.262195,531.873183 L316.970137,531.974039 L316.443745,532.165946 L316.863693,531.120082 C317.014785,530.732649 316.85175,530.300183 316.497977,530.103836 L316.396857,530.056353 Z M320.064493,535.809584 L320.017561,535.813025 C319.980725,535.820563 319.951173,535.847097 319.938699,535.881444 L319.932281,535.917982 L319.93102,540.332271 L319.91995,540.42929 C319.868895,540.678786 319.667567,540.867977 319.419962,540.90694 L319.325144,540.914333 L316.035526,540.913118 L315.989916,540.916409 C315.969207,540.920548 315.950144,540.930723 315.935154,540.945713 C315.92176,540.959107 315.912278,540.975684 315.907445,540.993665 L315.903775,541.02147 L315.90256,542.068267 L315.905851,542.113877 C315.90999,542.134586 315.920165,542.153649 315.935154,542.168639 C315.948549,542.182033 315.965125,542.191515 315.983107,542.196348 L316.010912,542.200018 L321.086214,542.201233 L321.131825,542.197942 C321.152533,542.193803 321.171597,542.183628 321.186586,542.168639 C321.199981,542.155244 321.209463,542.138667 321.214295,542.120686 L321.217966,542.092881 L321.219181,535.942596 L321.21589,535.896986 C321.21175,535.876277 321.201576,535.857213 321.186586,535.842224 C321.173191,535.828829 321.156615,535.819348 321.138633,535.814515 L321.110829,535.810844 L320.064493,535.809584 Z" transform="translate(-311 -530)" fill="url(#dnnoeeib1__52itc8sjwa)" fill-rule="nonzero"/>
</svg>
