<?xml version="1.0" standalone="no"?><!DOCTYPE svg PUBLIC "-//W3C//DTD SVG 1.1//EN" "http://www.w3.org/Graphics/SVG/1.1/DTD/svg11.dtd"><svg t="1765707061631" class="icon" viewBox="0 0 1024 1024" version="1.1" xmlns="http://www.w3.org/2000/svg" p-id="4707" xmlns:xlink="http://www.w3.org/1999/xlink" width="128" height="128"><path d="M949.055 245.464c107.972 176.165 96.607 403.475-28.414 568.275s-335.282 244.357-534.178 193.213C255.76 972.855 142.106 893.297 73.913 773.959s-90.924-255.723-56.828-386.426C62.547 188.637 227.347 40.886 431.925 6.789s409.158 62.51 517.13 238.675z m-244.358 556.91H346.684V859.2h358.013v-56.827z m-28.414-659.199h-73.875v56.827h-102.29v56.828h102.29v102.29c-28.414-28.415-62.51-45.463-102.29-51.145h-11.365c-51.145 0-90.924 17.048-119.338 56.827s-45.462 90.924-45.462 147.751v22.731c0 62.51 17.049 113.655 45.462 153.434s68.193 62.51 119.338 62.51c45.462 0 85.24-17.048 113.655-45.462l5.682-5.682 5.683 45.462h68.193v-477.35h73.876v-56.828h-73.876l-5.683-68.193z m-170.482 227.31c39.78 0 73.876 17.048 96.607 51.144l5.682 11.366v193.213c-22.73 39.78-56.827 62.51-102.289 62.51-34.096 0-62.51-11.365-79.558-39.779s-28.414-62.51-28.414-113.655c0-51.144 11.365-90.924 28.414-119.337s45.462-45.462 79.558-45.462z" fill="#3b82f6" p-id="4708"></path></svg>