<?xml version="1.0" standalone="no"?><!DOCTYPE svg PUBLIC "-//W3C//DTD SVG 1.1//EN" "http://www.w3.org/Graphics/SVG/1.1/DTD/svg11.dtd"><svg t="1764743156330" class="icon" viewBox="0 0 1024 1024" version="1.1" xmlns="http://www.w3.org/2000/svg" p-id="23681" xmlns:xlink="http://www.w3.org/1999/xlink" width="256" height="256"><path d="M512 1024C229.312 1023.904 0.192 794.72 0.192 512c0-43.936 5.536-86.592 15.936-127.264l-0.768 3.552C72.896 163.808 273.408 0.544 512.064 0.544c185.152 0 347.36 98.304 437.28 245.536l1.28 2.24c46.112 75.04 73.44 165.888 73.44 263.168 0 44.128-5.632 86.944-16.192 127.776l0.768-3.52C951.296 860.416 750.752 1023.936 512 1024zM512 25.6C243.424 25.696 25.76 243.424 25.76 512c0 226.752 155.168 417.28 365.12 471.168l3.36 0.736c35.36 9.184 75.936 14.464 117.728 14.464 226.784 0 417.344-155.232 471.2-365.216l0.736-3.36c9.184-35.36 14.464-75.936 14.464-117.728 0-226.784-155.232-417.344-365.216-471.2l-3.36-0.736a476.352 476.352 0 0 0-117.728-14.496h-0.032z" p-id="23682" fill="#ff6b35"></path><path d="M584.544 694.176v-59.744a108.576 108.576 0 0 1-100.512 67.84h-0.64 0.032-1.664c-38.4 0-72.64-17.728-95.008-45.44l-0.192-0.224a169.728 169.728 0 0 1-38.816-114.656v0.288a189.92 189.92 0 0 1 42.912-128.32l-0.256 0.352a133.92 133.92 0 0 1 107.232-49.92h-0.128 1.28c34.4 0 64.896 16.672 83.84 42.4l0.192 0.288v-75.104h-128V289.28h128V241.504h66.144v49.504h63.584v42.656h-61.856v361.824zM650.656 768h-253.024v-42.656h253.024z m-66.112-320.864a110.592 110.592 0 0 0-72.224-32.832H512a80.032 80.032 0 0 0-67.264 31.808l-0.16 0.192a142.048 142.048 0 0 0-24.32 89.152l-0.032-0.416a127.296 127.296 0 0 0 22.464 80.64l-0.288-0.416a72.48 72.48 0 0 0 61.12 29.44h-0.128a106.336 106.336 0 0 0 85.056-50.72l0.256-0.48z" p-id="23683" fill="#ff6b35"></path></svg>