<svg xmlns="http://www.w3.org/2000/svg" viewBox="0 0 19 18" class="design-iconfont">
  <defs>
    <linearGradient x1="50%" y1="0%" x2="50%" y2="100%" id="5fok5lq8b__e4794gwr3a">
      <stop stop-color="#5DAEEF" offset="0%"/>
      <stop stop-color="#3588F6" offset="100%"/>
    </linearGradient>
  </defs>
  <path d="M137.948,615.212 L137.948,621.134 C137.948,621.657768 138.155928,622.159822 138.526382,622.529618 C138.896178,622.900072 139.398232,623.108 139.922,623.108 L146.502,623.108 C147.025768,623.108 147.527822,622.900072 147.897618,622.529618 C148.268072,622.159822 148.476,621.657768 148.476,621.134 L148.476,615.212 L150.45,615.212 C151.540306,615.212 152.424,614.328306 152.424,613.238 L152.424,607.974 C152.424,606.883694 151.540306,606 150.45,606 L135.974,606 C134.883694,606 134,606.883694 134,607.974 L134,613.238 C134,614.328306 134.883694,615.212 135.974,615.212 L137.948,615.212 Z M147.16,611.264 L147.16,621.134 C147.16,621.30837 147.09091,621.47616 146.967206,621.599206 C146.84416,621.72291 146.67637,621.792 146.502,621.792 C146.502,621.792 139.922,621.792 139.922,621.792 C139.74763,621.792 139.57984,621.72291 139.456794,621.599206 C139.33309,621.47616 139.264,621.30837 139.264,621.134 L139.264,611.264 L147.16,611.264 Z M142.554,613.887446 C142.142092,613.990094 141.792694,614.203286 141.55713,614.520442 C141.36302,614.781668 141.238,615.117248 141.238,615.545606 C141.238,616.393768 141.824278,616.8241 142.638224,617.061638 C142.933008,617.147178 143.25806,617.210346 143.541,617.305098 C143.628514,617.334708 143.710764,617.366292 143.782486,617.407746 C143.826572,617.433408 143.87,617.460386 143.87,617.519606 C143.87,617.78149 143.671284,617.882164 143.452828,617.911774 C143.056712,617.965072 142.580978,617.845974 142.263822,617.632124 C141.963116,617.428802 141.55384,617.50842 141.350518,617.809126 C141.147196,618.11049 141.226814,618.519766 141.528178,618.723088 C141.815066,618.91654 142.17565,619.063932 142.554,619.149472 L142.554,619.16 C142.554,619.523216 142.848784,619.818 143.212,619.818 C143.571926,619.818 143.864736,619.52848 143.87,619.16987 C143.939748,619.15342 144.00818,619.13368 144.073322,619.11065 C144.719478,618.882324 145.186008,618.384218 145.186008,617.519606 C145.186008,616.671444 144.599722,616.241112 143.785776,616.003574 C143.490992,615.917376 143.16594,615.854208 142.883,615.759456 C142.795486,615.730504 142.713236,615.698262 142.641514,615.657466 C142.597428,615.631804 142.554,615.604168 142.554,615.545606 C142.554,615.280432 142.753374,615.17581 142.973804,615.144884 C143.36663,615.09027 143.8371,615.207394 144.150966,615.427166 C144.44904,615.635094 144.859632,615.562056 145.06756,615.263982 C145.275488,614.966566 145.20245,614.555974 144.905034,614.348046 C144.615514,614.145382 144.250982,613.99141 143.87,613.90258 L143.87,613.896 C143.87,613.532784 143.575216,613.238 143.212,613.238 C142.852074,613.238 142.558606,613.528178 142.554,613.887446 Z M148.476,613.896 L150.45,613.896 C150.813216,613.896 151.108,613.601216 151.108,613.238 C151.108,613.238 151.108,607.974 151.108,607.974 C151.108,607.610784 150.813216,607.316 150.45,607.316 C150.45,607.316 135.974,607.316 135.974,607.316 C135.610784,607.316 135.316,607.610784 135.316,607.974 C135.316,607.974 135.316,613.238 135.316,613.238 C135.316,613.601216 135.610784,613.896 135.974,613.896 L137.948,613.896 L137.948,611.264 L137.29,611.264 C136.926784,611.264 136.632,610.969216 136.632,610.606 C136.632,610.242784 136.926784,609.948 137.29,609.948 L149.134,609.948 C149.497216,609.948 149.792,610.242784 149.792,610.606 C149.792,610.969216 149.497216,611.264 149.134,611.264 L148.476,611.264 L148.476,613.896 Z M147.818,609.29 L149.134,609.29 C149.497216,609.29 149.792,608.995216 149.792,608.632 C149.792,608.268784 149.497216,607.974 149.134,607.974 L147.818,607.974 C147.454784,607.974 147.16,608.268784 147.16,608.632 C147.16,608.995216 147.454784,609.29 147.818,609.29 Z" transform="translate(-134 -606)" fill="url(#5fok5lq8b__e4794gwr3a)" fill-rule="evenodd"/>
</svg>
