<svg width="21" height="21" viewBox="0 0 21 21" fill="none" xmlns="http://www.w3.org/2000/svg">
<path d="M15.0704 5.88834C15.3631 6.18119 15.3631 6.65611 15.0704 6.949L11.7427 10.2767L14.7258 13.2598C15.0185 13.5527 15.0186 14.0276 14.7258 14.3205C14.4329 14.6133 13.958 14.6132 13.6651 14.3205L10.682 11.3373L7.6989 14.3205C7.40601 14.6132 6.93109 14.6133 6.63824 14.3205C6.3454 14.0276 6.34549 13.5527 6.63824 13.2598L9.62135 10.2767L6.29366 6.949C6.00094 6.65611 6.00087 6.18119 6.29366 5.88834C6.5865 5.5955 7.06142 5.59561 7.35432 5.88834L10.682 9.21603L14.0097 5.88834C14.3026 5.59561 14.7775 5.5955 15.0704 5.88834Z" fill="white"/>
<path d="M10.5 0.75C15.9107 0.75 20.25 4.97281 20.25 10.125C20.25 15.2772 15.9107 19.5 10.5 19.5C5.08928 19.5 0.75 15.2772 0.75 10.125C0.75 4.97281 5.08928 0.75 10.5 0.75Z" stroke="white" stroke-width="1.5"/>
</svg>
