<svg width="334" height="23" viewBox="0 0 334 23" fill="none" xmlns="http://www.w3.org/2000/svg">
<g filter="url(#filter0_i_35_236)">
<path d="M0.969513 16.418V13.466H10.9235V16.418H0.969513ZM23.4192 5.996H29.4312V8.948H28.7112L25.4892 20H19.6572L16.4352 8.948H15.7152V5.996H22.6272V8.948H21.6912L22.9332 14.978H23.1132L24.3552 8.948H23.4192V5.996ZM29.6016 20V17.048H30.5016V8.948H29.6016V5.996H36.4416V8.948H35.5416V17.048H36.4416V20H29.6016ZM36.7522 17.048H37.6522V8.948H36.7522V5.996H45.0142C46.5142 5.996 47.6842 6.302 48.5242 6.914C49.3642 7.526 49.7842 8.402 49.7842 9.542C49.7842 10.25 49.6162 10.85 49.2802 11.342C48.9442 11.822 48.5482 12.188 48.0922 12.44C47.6482 12.68 47.2162 12.842 46.7962 12.926V13.106C47.6482 13.19 48.4162 13.46 49.1002 13.916C49.7842 14.372 50.1262 15.188 50.1262 16.364C50.1262 17.624 49.6522 18.548 48.7042 19.136C47.7562 19.712 46.5262 20 45.0142 20H36.7522V17.048ZM43.6642 11.9C44.0122 11.9 44.2702 11.81 44.4382 11.63C44.6182 11.438 44.7082 11.144 44.7082 10.748V10.1C44.7082 9.704 44.6182 9.416 44.4382 9.236C44.2702 9.044 44.0122 8.948 43.6642 8.948H42.6922V11.9H43.6642ZM43.7902 17.048C44.1382 17.048 44.3962 16.958 44.5642 16.778C44.7442 16.586 44.8342 16.292 44.8342 15.896V15.104C44.8342 14.708 44.7442 14.42 44.5642 14.24C44.3962 14.048 44.1382 13.952 43.7902 13.952H42.6922V17.048H43.7902ZM50.6612 20V17.048H53.4692V20H50.6612ZM54.2878 17.048H55.1878V8.948H54.2878V5.996H62.5498C64.0498 5.996 65.2198 6.302 66.0598 6.914C66.8998 7.526 67.3198 8.402 67.3198 9.542C67.3198 10.25 67.1518 10.85 66.8158 11.342C66.4798 11.822 66.0838 12.188 65.6278 12.44C65.1838 12.68 64.7518 12.842 64.3318 12.926V13.106C65.1838 13.19 65.9518 13.46 66.6358 13.916C67.3198 14.372 67.6618 15.188 67.6618 16.364C67.6618 17.624 67.1878 18.548 66.2398 19.136C65.2918 19.712 64.0618 20 62.5498 20H54.2878V17.048ZM61.1998 11.9C61.5478 11.9 61.8058 11.81 61.9738 11.63C62.1538 11.438 62.2438 11.144 62.2438 10.748V10.1C62.2438 9.704 62.1538 9.416 61.9738 9.236C61.8058 9.044 61.5478 8.948 61.1998 8.948H60.2278V11.9H61.1998ZM61.3258 17.048C61.6738 17.048 61.9318 16.958 62.0998 16.778C62.2798 16.586 62.3698 16.292 62.3698 15.896V15.104C62.3698 14.708 62.2798 14.42 62.0998 14.24C61.9318 14.048 61.6738 13.952 61.3258 13.952H60.2278V17.048H61.3258ZM67.8368 20V17.048H68.7368V8.948H67.8368V5.996H79.9868V11.432H75.9548V8.948H73.7768V11.792H75.3608V13.844H73.7768V17.048H75.9548V14.204H79.9868V20H67.8368ZM93.6888 10.352H90.5928V8.948H89.4408V17.048H90.7008V20H83.1408V17.048H84.4008V8.948H83.2488V10.352H80.1528V5.996H93.6888V10.352ZM92.0956 22.898L93.0316 20H92.1136V17.048H94.9216V20L93.6436 22.898H92.0956ZM111.096 5.996H117V8.948H116.1V20H111.042L105.768 11.882V17.048H106.632V20H100.728V17.048H101.628V8.948H100.728V5.996H107.226L111.96 13.214V8.948H111.096V5.996ZM117.283 20V17.048H118.183V8.948H117.283V5.996H129.433V11.432H125.401V8.948H123.223V11.792H124.807V13.844H123.223V17.048H125.401V14.204H129.433V20H117.283ZM128.893 1.028L129.775 2.936V3.206H127.615L125.815 1.496V1.028H128.893ZM122.197 2.288H125.437L127.543 4.736V5.006H125.131L123.817 3.71L122.503 5.006H120.091V4.736L122.197 2.288ZM140.075 5.996H145.979V8.948H145.079V20H140.021L134.747 11.882V17.048H135.611V20H129.707V17.048H130.607V8.948H129.707V5.996H136.205L140.939 13.214V8.948H140.075V5.996ZM164.679 10.352H161.583V8.948H160.431V17.048H161.691V20H154.131V17.048H155.391V8.948H154.239V10.352H151.143V5.996H164.679V10.352ZM178.099 17.048H178.819V20H171.763V17.048H172.843L172.555 15.608H170.107L169.819 17.048H170.899V20H164.743V17.048H165.463L168.505 5.996H175.057L178.099 17.048ZM170.503 13.7H172.159L171.421 10.118H171.241L170.503 13.7ZM171.133 4.43C171.337 4.214 171.481 4.028 171.565 3.872C171.649 3.704 171.691 3.506 171.691 3.278C171.691 3.026 171.607 2.822 171.439 2.666C171.283 2.51 171.061 2.432 170.773 2.432C170.521 2.432 170.251 2.468 169.963 2.54V1.19C170.503 1.01 171.055 0.919999 171.619 0.919999C172.267 0.919999 172.771 1.082 173.131 1.406C173.503 1.718 173.689 2.156 173.689 2.72C173.689 3.596 173.083 4.418 171.871 5.186L171.133 4.43ZM189.349 5.996H195.253V8.948H194.353V20H189.295L184.021 11.882V17.048H184.885V20H178.981V17.048H179.881V8.948H178.981V5.996H185.479L190.213 13.214V8.948H189.349V5.996ZM209.108 15.5H208.208V19.1C207.68 19.4 206.906 19.67 205.886 19.91C204.878 20.138 203.786 20.252 202.61 20.252C200.366 20.252 198.608 19.664 197.336 18.488C196.064 17.3 195.428 15.47 195.428 12.998C195.428 10.466 196.058 8.624 197.318 7.472C198.59 6.32 200.402 5.744 202.754 5.744C203.894 5.744 204.962 5.864 205.958 6.104C206.954 6.344 207.704 6.614 208.208 6.914V11.216H203.708V10.37C203.708 9.866 203.6 9.506 203.384 9.29C203.18 9.062 202.85 8.948 202.394 8.948C201.938 8.948 201.602 9.062 201.386 9.29C201.182 9.506 201.08 9.866 201.08 10.37V15.626C201.08 16.13 201.182 16.496 201.386 16.724C201.602 16.94 201.938 17.048 202.394 17.048C202.85 17.048 203.18 16.94 203.384 16.724C203.6 16.496 203.708 16.13 203.708 15.626V15.5H202.736V12.818H209.108V15.5ZM220.929 20.252C219.045 20.252 217.587 19.838 216.555 19.01C215.535 18.182 215.025 16.838 215.025 14.978V8.948H214.125V5.996H220.785V8.948H220.065V15.896C220.065 16.292 220.149 16.586 220.317 16.778C220.497 16.958 220.761 17.048 221.109 17.048C221.457 17.048 221.715 16.958 221.883 16.778C222.063 16.586 222.153 16.292 222.153 15.896V8.948H221.433V5.996H227.607V8.948H226.707V14.978C226.707 16.838 226.209 18.182 225.213 19.01C224.217 19.838 222.789 20.252 220.929 20.252ZM235.717 5.996H241.243V8.948H240.523L237.049 15.176V17.048H237.949V20H231.109V17.048H232.009V15.176L228.427 8.948H227.707V5.996H234.673V8.948H234.043L235.105 11.738H235.285L236.347 8.948H235.717V5.996ZM259.834 10.352H256.738V8.948H255.586V17.048H256.846V20H249.286V17.048H250.546V8.948H249.394V10.352H246.298V5.996H259.834V10.352ZM260.043 20V17.048H260.943V8.948H260.043V5.996H266.883V8.948H265.983V17.048H266.883V20H260.043ZM261.123 4.916V4.646L263.085 2.918H267.603V3.386L264.669 4.916H261.123ZM277.562 5.996H283.466V8.948H282.566V20H277.508L272.234 11.882V17.048H273.098V20H267.194V17.048H268.094V8.948H267.194V5.996H273.692L278.426 13.214V8.948H277.562V5.996ZM294.317 20.252C293.165 20.252 292.073 20.156 291.041 19.964C290.021 19.76 289.235 19.532 288.683 19.28V15.716H292.643C292.643 16.088 292.727 16.358 292.895 16.526C293.063 16.694 293.369 16.778 293.813 16.778C294.185 16.778 294.449 16.724 294.605 16.616C294.773 16.496 294.857 16.322 294.857 16.094C294.857 15.902 294.779 15.74 294.623 15.608C294.467 15.464 294.197 15.32 293.813 15.176L292.265 14.636C290.933 14.132 289.973 13.538 289.385 12.854C288.809 12.17 288.521 11.246 288.521 10.082C288.521 8.666 288.983 7.592 289.907 6.86C290.843 6.116 292.397 5.744 294.569 5.744C295.613 5.744 296.591 5.852 297.503 6.068C298.427 6.272 299.171 6.548 299.735 6.896V10.118H296.135C296.135 9.518 295.763 9.218 295.019 9.218C294.659 9.218 294.401 9.266 294.245 9.362C294.101 9.446 294.029 9.602 294.029 9.83C294.029 10.034 294.113 10.196 294.281 10.316C294.461 10.436 294.749 10.562 295.145 10.694L296.711 11.234C297.983 11.666 298.907 12.23 299.483 12.926C300.071 13.61 300.365 14.51 300.365 15.626C300.365 17.15 299.849 18.302 298.817 19.082C297.797 19.862 296.297 20.252 294.317 20.252ZM307.226 20.252C305.03 20.252 303.332 19.676 302.132 18.524C300.944 17.372 300.35 15.53 300.35 12.998C300.35 10.466 300.944 8.624 302.132 7.472C303.332 6.32 305.03 5.744 307.226 5.744C309.422 5.744 311.114 6.32 312.302 7.472C313.502 8.624 314.102 10.466 314.102 12.998C314.102 15.53 313.502 17.372 312.302 18.524C311.114 19.676 309.422 20.252 307.226 20.252ZM307.226 17.048C307.634 17.048 307.94 16.94 308.144 16.724C308.348 16.508 308.45 16.172 308.45 15.716V10.28C308.45 9.824 308.348 9.488 308.144 9.272C307.94 9.056 307.634 8.948 307.226 8.948C306.818 8.948 306.512 9.056 306.308 9.272C306.104 9.488 306.002 9.824 306.002 10.28V15.716C306.002 16.184 306.104 16.526 306.308 16.742C306.512 16.946 306.818 17.048 307.226 17.048ZM311.006 0.938H314.084V1.406L312.284 3.116H310.124V2.846L311.006 0.938ZM305.606 2.288H308.846L310.952 4.736V5.006H308.54L307.226 3.71L305.912 5.006H303.5V4.736L305.606 2.288ZM319.727 20V17.048H321.455V8.948H319.187V6.914L323.183 5.996H326.207V17.048H327.719V20H319.727ZM329.119 16.058L328.291 6.896V5.996H333.673V6.896L332.827 16.058H329.119ZM328.939 20V17.048H333.007V20H328.939Z" fill="url(#paint0_linear_35_236)"/>
</g>
<defs>
<filter id="filter0_i_35_236" x="0.969482" y="0.919998" width="332.703" height="21.978" filterUnits="userSpaceOnUse" color-interpolation-filters="sRGB">
<feFlood flood-opacity="0" result="BackgroundImageFix"/>
<feBlend mode="normal" in="SourceGraphic" in2="BackgroundImageFix" result="shape"/>
<feColorMatrix in="SourceAlpha" type="matrix" values="0 0 0 0 0 0 0 0 0 0 0 0 0 0 0 0 0 0 127 0" result="hardAlpha"/>
<feOffset/>
<feGaussianBlur stdDeviation="1"/>
<feComposite in2="hardAlpha" operator="arithmetic" k2="-1" k3="1"/>
<feColorMatrix type="matrix" values="0 0 0 0 0.992157 0 0 0 0 0.717647 0 0 0 0 0.141176 0 0 0 1 0"/>
<feBlend mode="normal" in2="shape" result="effect1_innerShadow_35_236"/>
</filter>
<linearGradient id="paint0_linear_35_236" x1="172.5" y1="8.5" x2="172.5" y2="25" gradientUnits="userSpaceOnUse">
<stop stop-color="#C6F889"/>
<stop offset="1" stop-color="#2CF3A4"/>
</linearGradient>
</defs>
</svg>
