<svg width="335" height="23" viewBox="0 0 335 23" fill="none" xmlns="http://www.w3.org/2000/svg">
<g filter="url(#filter0_i_35_235)">
<path d="M15.1915 8.948H14.2915V17.048H15.1915V20H8.38752V17.048H9.25152V14.078H6.73152V17.048H7.59552V20H0.791519V17.048H1.69152V8.948H0.791519V5.996H7.59552V8.948H6.73152V11.684H9.25152V8.948H8.38752V5.996H15.1915V8.948ZM22.2687 20.252C20.0727 20.252 18.3747 19.676 17.1747 18.524C15.9867 17.372 15.3927 15.53 15.3927 12.998C15.3927 10.466 15.9867 8.624 17.1747 7.472C18.3747 6.32 20.0727 5.744 22.2687 5.744C24.4647 5.744 26.1567 6.32 27.3447 7.472C28.5447 8.624 29.1447 10.466 29.1447 12.998C29.1447 15.53 28.5447 17.372 27.3447 18.524C26.1567 19.676 24.4647 20.252 22.2687 20.252ZM22.2687 17.048C22.6767 17.048 22.9827 16.94 23.1867 16.724C23.3907 16.508 23.4927 16.172 23.4927 15.716V10.28C23.4927 9.824 23.3907 9.488 23.1867 9.272C22.9827 9.056 22.6767 8.948 22.2687 8.948C21.8607 8.948 21.5547 9.056 21.3507 9.272C21.1467 9.488 21.0447 9.824 21.0447 10.28V15.716C21.0447 16.184 21.1467 16.526 21.3507 16.742C21.5547 16.946 21.8607 17.048 22.2687 17.048ZM17.7327 4.916V4.646L20.0187 2.378H24.5187L26.8047 4.646V4.916H24.0327L22.3587 3.458H22.1787L20.5047 4.916H17.7327ZM49.2026 8.948H48.3026V17.048H49.2026V20H42.3986V17.048H43.2626V10.748L40.2026 20H37.5386L34.3886 10.838V17.048H35.2526V20H29.3486V17.048H30.2486V8.948H29.3486V5.996H37.5926L39.4646 11.612L41.2646 5.996H49.2026V8.948ZM64.8635 5.996H70.7675V8.948H69.8675V20H64.8095L59.5355 11.882V17.048H60.3995V20H54.4955V17.048H55.3955V8.948H54.4955V5.996H60.9935L65.7275 13.214V8.948H64.8635V5.996ZM84.2623 17.048H84.9823V20H77.9263V17.048H79.0063L78.7183 15.608H76.2703L75.9823 17.048H77.0623V20H70.9063V17.048H71.6263L74.6683 5.996H81.2203L84.2623 17.048ZM76.6663 13.7H78.3223L77.5843 10.118H77.4043L76.6663 13.7ZM90.4966 5.996H96.0226V8.948H95.3026L91.8286 15.176V17.048H92.7286V20H85.8886V17.048H86.7886V15.176L83.2066 8.948H82.4866V5.996H89.4526V8.948H88.8226L89.8846 11.738H90.0646L91.1266 8.948H90.4966V5.996ZM101.618 20V17.048H103.346V8.948H101.078V6.914L105.074 5.996H108.098V17.048H109.61V20H101.618ZM128.599 10.352H125.503V8.948H124.351V17.048H125.611V20H118.051V17.048H119.311V8.948H118.159V10.352H115.063V5.996H128.599V10.352ZM136.673 5.996H142.199V8.948H141.479L138.005 15.176V17.048H138.905V20H132.065V17.048H132.965V15.176L129.383 8.948H128.663V5.996H135.629V8.948H134.999L136.061 11.738H136.241L137.303 8.948H136.673V5.996ZM135.503 4.43C135.707 4.214 135.851 4.028 135.935 3.872C136.019 3.704 136.061 3.506 136.061 3.278C136.061 3.026 135.977 2.822 135.809 2.666C135.653 2.51 135.431 2.432 135.143 2.432C134.891 2.432 134.621 2.468 134.333 2.54V1.19C134.873 1.01 135.425 0.919999 135.989 0.919999C136.637 0.919999 137.141 1.082 137.501 1.406C137.873 1.718 138.059 2.156 138.059 2.72C138.059 3.596 137.453 4.418 136.241 5.186L135.503 4.43ZM140.027 22.898L140.963 20H140.045V17.048H142.853V20L141.575 22.898H140.027ZM159.028 5.996H164.932V8.948H164.032V20H158.974L153.7 11.882V17.048H154.564V20H148.66V17.048H149.56V8.948H148.66V5.996H155.158L159.892 13.214V8.948H159.028V5.996ZM178.786 15.5H177.886V19.1C177.358 19.4 176.584 19.67 175.564 19.91C174.556 20.138 173.464 20.252 172.288 20.252C170.044 20.252 168.286 19.664 167.014 18.488C165.742 17.3 165.106 15.47 165.106 12.998C165.106 10.466 165.736 8.624 166.996 7.472C168.268 6.32 170.08 5.744 172.432 5.744C173.572 5.744 174.64 5.864 175.636 6.104C176.632 6.344 177.382 6.614 177.886 6.914V11.216H173.386V10.37C173.386 9.866 173.278 9.506 173.062 9.29C172.858 9.062 172.528 8.948 172.072 8.948C171.616 8.948 171.28 9.062 171.064 9.29C170.86 9.506 170.758 9.866 170.758 10.37V15.626C170.758 16.13 170.86 16.496 171.064 16.724C171.28 16.94 171.616 17.048 172.072 17.048C172.528 17.048 172.858 16.94 173.062 16.724C173.278 16.496 173.386 16.13 173.386 15.626V15.5H172.414V12.818H178.786V15.5ZM192.099 17.048H192.819V20H185.763V17.048H186.843L186.555 15.608H184.107L183.819 17.048H184.899V20H178.743V17.048H179.463L182.505 5.996H189.057L192.099 17.048ZM184.503 13.7H186.159L185.421 10.118H185.241L184.503 13.7ZM184.611 4.916L181.677 3.386V2.918H186.195L188.157 4.646V4.916H184.611ZM198.333 5.996H203.859V8.948H203.139L199.665 15.176V17.048H200.565V20H193.725V17.048H194.625V15.176L191.043 8.948H190.323V5.996H197.289V8.948H196.659L197.721 11.738H197.901L198.963 8.948H198.333V5.996ZM228.876 8.948H227.976V17.048H228.876V20H222.072V17.048H222.936V10.748L219.876 20H217.212L214.062 10.838V17.048H214.926V20H209.022V17.048H209.922V8.948H209.022V5.996H217.266L219.138 11.612L220.938 5.996H228.876V8.948ZM242.392 17.048H243.112V20H236.056V17.048H237.136L236.848 15.608H234.4L234.112 17.048H235.192V20H229.036V17.048H229.756L232.798 5.996H239.35L242.392 17.048ZM234.796 13.7H236.452L235.714 10.118H235.534L234.796 13.7ZM243.274 20V17.048H244.174V8.948H243.274V5.996H250.114V8.948H249.214V17.048H250.114V20H243.274ZM255.845 20V17.048H257.573V8.948H255.305V6.914L259.301 5.996H262.325V17.048H263.837V20H255.845ZM270.638 20.252C268.61 20.252 267.044 19.676 265.94 18.524C264.848 17.372 264.302 15.53 264.302 12.998C264.302 10.466 264.848 8.624 265.94 7.472C267.044 6.32 268.61 5.744 270.638 5.744C272.666 5.744 274.226 6.32 275.318 7.472C276.422 8.624 276.974 10.466 276.974 12.998C276.974 15.338 276.464 17.132 275.444 18.38C274.436 19.628 272.834 20.252 270.638 20.252ZM270.638 17.048C271.454 17.048 271.862 16.604 271.862 15.716V10.28C271.862 9.392 271.454 8.948 270.638 8.948C269.822 8.948 269.414 9.392 269.414 10.28V15.716C269.414 16.604 269.822 17.048 270.638 17.048ZM283.413 20.252C281.385 20.252 279.819 19.676 278.715 18.524C277.623 17.372 277.077 15.53 277.077 12.998C277.077 10.466 277.623 8.624 278.715 7.472C279.819 6.32 281.385 5.744 283.413 5.744C285.441 5.744 287.001 6.32 288.093 7.472C289.197 8.624 289.749 10.466 289.749 12.998C289.749 15.338 289.239 17.132 288.219 18.38C287.211 19.628 285.609 20.252 283.413 20.252ZM283.413 17.048C284.229 17.048 284.637 16.604 284.637 15.716V10.28C284.637 9.392 284.229 8.948 283.413 8.948C282.597 8.948 282.189 9.392 282.189 10.28V15.716C282.189 16.604 282.597 17.048 283.413 17.048ZM296.189 20.252C294.161 20.252 292.595 19.676 291.491 18.524C290.399 17.372 289.853 15.53 289.853 12.998C289.853 10.466 290.399 8.624 291.491 7.472C292.595 6.32 294.161 5.744 296.189 5.744C298.217 5.744 299.777 6.32 300.869 7.472C301.973 8.624 302.525 10.466 302.525 12.998C302.525 15.338 302.015 17.132 300.995 18.38C299.987 19.628 298.385 20.252 296.189 20.252ZM296.189 17.048C297.005 17.048 297.413 16.604 297.413 15.716V10.28C297.413 9.392 297.005 8.948 296.189 8.948C295.373 8.948 294.965 9.392 294.965 10.28V15.716C294.965 16.604 295.373 17.048 296.189 17.048ZM321.153 10.352H318.057V8.948H316.905V17.048H318.165V20H310.605V17.048H311.865V8.948H310.713V10.352H307.617V5.996H321.153V10.352ZM329.228 5.996H334.754V8.948H334.034L330.56 15.176V17.048H331.46V20H324.62V17.048H325.52V15.176L321.938 8.948H321.218V5.996H328.184V8.948H327.554L328.616 11.738H328.796L329.858 8.948H329.228V5.996ZM328.058 4.43C328.262 4.214 328.406 4.028 328.49 3.872C328.574 3.704 328.616 3.506 328.616 3.278C328.616 3.026 328.532 2.822 328.364 2.666C328.208 2.51 327.986 2.432 327.698 2.432C327.446 2.432 327.176 2.468 326.888 2.54V1.19C327.428 1.01 327.98 0.919999 328.544 0.919999C329.192 0.919999 329.696 1.082 330.056 1.406C330.428 1.718 330.614 2.156 330.614 2.72C330.614 3.596 330.008 4.418 328.796 5.186L328.058 4.43Z" fill="url(#paint0_linear_35_235)"/>
</g>
<defs>
<filter id="filter0_i_35_235" x="0.791504" y="0.919998" width="333.962" height="21.978" filterUnits="userSpaceOnUse" color-interpolation-filters="sRGB">
<feFlood flood-opacity="0" result="BackgroundImageFix"/>
<feBlend mode="normal" in="SourceGraphic" in2="BackgroundImageFix" result="shape"/>
<feColorMatrix in="SourceAlpha" type="matrix" values="0 0 0 0 0 0 0 0 0 0 0 0 0 0 0 0 0 0 127 0" result="hardAlpha"/>
<feOffset/>
<feGaussianBlur stdDeviation="1"/>
<feComposite in2="hardAlpha" operator="arithmetic" k2="-1" k3="1"/>
<feColorMatrix type="matrix" values="0 0 0 0 0.992157 0 0 0 0 0.717647 0 0 0 0 0.141176 0 0 0 1 0"/>
<feBlend mode="normal" in2="shape" result="effect1_innerShadow_35_235"/>
</filter>
<linearGradient id="paint0_linear_35_235" x1="172.5" y1="8.5" x2="172.5" y2="25" gradientUnits="userSpaceOnUse">
<stop stop-color="#C6F889"/>
<stop offset="1" stop-color="#2CF3A4"/>
</linearGradient>
</defs>
</svg>
