<svg xmlns="http://www.w3.org/2000/svg" viewBox="0 0 23 23" class="design-iconfont">
  <path d="M357.0059,63.6846341 C356.60685,58.8300696 352.49675,55 347.5,55 C342.50325,55 338.3874,58.8300696 337.99295,63.6846341 C336.809705,64.0617827 336.004698,65.158805 336,66.4005225 L336,68.5851915 C336,70.1753097 337.289241,71.4643552 338.8796,71.4643552 C340.469959,71.4643552 341.7592,70.1753097 341.7592,68.5851915 L341.7592,66.4005225 C341.754789,65.1864778 340.984456,64.1074384 339.83755,63.7087804 C340.2182,59.8499651 343.50835,56.8247735 347.5,56.8247735 C351.49165,56.8247735 354.78065,59.8499651 355.16245,63.7087804 C354.01509,64.1070484 353.244232,65.1861779 353.23965,66.4005225 L353.23965,68.5851915 C353.244847,69.7896898 354.003188,70.862235 355.13715,71.2688848 C354.77145,73.4351566 352.83715,75.0932053 350.50265,75.0932053 C350.46815,75.0932053 350.43365,75.0932053 350.39915,75.0989544 C350.132366,74.33929 349.413853,73.8317468 348.6086,73.8341461 L346.3431,73.8341461 C345.303529,73.8296797 344.456126,74.6666721 344.4479,75.7060625 L344.4479,76.1222994 C344.452969,77.1639398 345.301299,78.0044206 346.3431,77.9999825 L348.6086,77.9999825 C349.349069,78.0021954 350.022937,77.572782 350.3336,76.9007314 C350.390097,76.9113728 350.447459,76.9167616 350.50495,76.916829 C353.83995,76.916829 356.59995,74.4631008 356.9921,71.3056792 C358.185471,70.9320945 358.998368,69.8274489 359,68.5771427 L359,66.3924737 C358.991662,65.1534201 358.186789,64.0604624 357.0059,63.6846341 Z M339.91805,68.5771427 C339.91805,69.1508934 339.452863,69.6160103 338.879025,69.6160103 C338.305187,69.6160103 337.84,69.1508934 337.84,68.5771427 L337.84,66.3924737 C337.84,65.818723 338.305187,65.3536061 338.879025,65.3536061 C339.452863,65.3536061 339.91805,65.818723 339.91805,66.3924737 L339.91805,68.5771427 Z M357.15885,68.5771427 C357.15885,69.1508934 356.693663,69.6160103 356.119825,69.6160103 C355.545987,69.6160103 355.0808,69.1508934 355.0808,68.5771427 L355.0808,66.3924737 C355.0808,65.818723 355.545987,65.3536061 356.119825,65.3536061 C356.693663,65.3536061 357.15885,65.818723 357.15885,66.3924737 L357.15885,68.5771427 Z" transform="translate(-336 -55)" fill="#FFF" fill-rule="nonzero"/>
</svg>
